<svg id="Layer_1" data-name="Layer 1" xmlns="http://www.w3.org/2000/svg" viewBox="0 0 792 612"><defs><style>.cls-1{fill:#ffffff;}</style></defs><title>cpArtboard 1</title><path class="cls-1" d="M454,263.5a41.48,41.48,0,0,0-19.29,4.74,17.91,17.91,0,0,1,1.54,7.25v5.9a29.75,29.75,0,1,1-4,44.14,53.58,53.58,0,0,1-6,10.88,41.66,41.66,0,0,0,57.49-1.89l0,30.22a6,6,0,0,0,6,6h0a6,6,0,0,0,6-6l0-59.5A41.8,41.8,0,0,0,454,263.5Z"/><path class="cls-1" d="M311,263.5A41.58,41.58,0,0,0,281.25,276V245.75a6,6,0,0,0-6-6h0a6,6,0,0,0-6,6l0,59.51A41.75,41.75,0,1,0,311,263.5Zm0,71.5a29.75,29.75,0,1,1,29.75-29.75A29.79,29.79,0,0,1,311,335Z"/><path class="cls-1" d="M418.24,269.49a6,6,0,0,0-6,6v29.76a29.73,29.73,0,0,1-51.49,20.28,54.07,54.07,0,0,1-6,10.88,41.72,41.72,0,0,0,69.5-31.16V275.49A6,6,0,0,0,418.24,269.49Z"/><path class="cls-1" d="M515.26,357.87a6.88,6.88,0,1,1-6.88,6.88,6.88,6.88,0,0,1,6.88-6.88m0-.63a7.51,7.51,0,1,0,7.51,7.51,7.5,7.5,0,0,0-7.51-7.51Z"/><path class="cls-1" d="M514.84,362.29a.27.27,0,0,0-.25.13l-1.85,2.76-1.83-2.76a.4.4,0,0,0-.12-.1l-.14,0a.28.28,0,0,0-.22.09.29.29,0,0,0-.09.21v4.57a.33.33,0,0,0,.08.22.25.25,0,0,0,.2.09.26.26,0,0,0,.21-.09.33.33,0,0,0,.08-.22v-3.73l1.57,2.41a.24.24,0,0,0,.11.09.33.33,0,0,0,.13,0,.28.28,0,0,0,.13,0,.31.31,0,0,0,.11-.09l1.56-2.37v3.69a.33.33,0,0,0,.08.22.32.32,0,0,0,.23.09.31.31,0,0,0,.22-.09.29.29,0,0,0,.09-.22v-4.57a.26.26,0,0,0-.09-.21A.29.29,0,0,0,514.84,362.29Z"/><path class="cls-1" d="M518.74,364.87l1.59-2.15a.34.34,0,0,0,.07-.18.26.26,0,0,0-.09-.19.3.3,0,0,0-.2-.08.28.28,0,0,0-.23.14l-1.48,2-1.5-2a.27.27,0,0,0-.24-.13.3.3,0,0,0-.21.09.27.27,0,0,0-.09.21.28.28,0,0,0,.06.18l1.59,2.14L516.43,367a.32.32,0,0,0-.08.2.27.27,0,0,0,.08.17.26.26,0,0,0,.43-.05l1.49-2,1.5,2a.29.29,0,0,0,.24.13.28.28,0,0,0,.2-.09.24.24,0,0,0,.1-.21.3.3,0,0,0-.06-.18Z"/></svg>